<svg xmlns="http://www.w3.org/2000/svg" xmlns:xlink="http://www.w3.org/1999/xlink" width="500" zoomAndPan="magnify" viewBox="0 0 375 374.999991" height="500" preserveAspectRatio="xMidYMid meet" version="1.2"><defs><clipPath id="7751983f2a"><path d="M 57 199 L 106.875 199 L 106.875 257.300781 L 57 257.300781 Z M 57 199 "/></clipPath></defs><g id="37b6528e24"><rect x="0" width="375" y="0" height="374.999991" style="fill:#ffffff;fill-opacity:1;stroke:none;"/><rect x="0" width="375" y="0" height="374.999991" style="fill:#fdfbf3;fill-opacity:1;stroke:none;"/><g style="fill:#000000;fill-opacity:1;"><g transform="translate(109.069745, 278.773479)"><path style="stroke:none" d="M 122.109375 -48.34375 C 123.054688 -47.507812 123.53125 -46.441406 123.53125 -45.140625 C 123.53125 -43.835938 123.054688 -42.710938 122.109375 -41.765625 C 121.753906 -41.410156 120.035156 -39.78125 116.953125 -36.875 C 113.867188 -33.976562 109.78125 -30.484375 104.6875 -26.390625 C 99.59375 -22.304688 93.816406 -18.28125 87.359375 -14.3125 C 80.898438 -10.34375 74.144531 -6.992188 67.09375 -4.265625 C 60.039062 -1.535156 52.960938 -0.171875 45.859375 -0.171875 C 40.992188 -0.171875 36.191406 -1.0625 31.453125 -2.84375 C 20.796875 -6.875 12.914062 -15.820312 7.8125 -29.6875 C 2.71875 -43.550781 0.828125 -61.085938 2.140625 -82.296875 C 2.015625 -83.242188 1.597656 -84.015625 0.890625 -84.609375 C 0.179688 -85.191406 -0.644531 -85.425781 -1.59375 -85.3125 C -10.601562 -84.601562 -18.78125 -83.976562 -26.125 -83.4375 C -33.46875 -82.90625 -39.332031 -82.492188 -43.71875 -82.203125 C -48.101562 -81.910156 -50.414062 -81.765625 -50.65625 -81.765625 L -51.015625 -81.765625 C -52.316406 -81.640625 -53.441406 -82.019531 -54.390625 -82.90625 C -55.335938 -83.800781 -55.8125 -84.898438 -55.8125 -86.203125 C -55.8125 -87.503906 -55.394531 -88.628906 -54.5625 -89.578125 C -53.738281 -90.523438 -52.671875 -91 -51.359375 -91 C -51.128906 -91 -48.703125 -91.175781 -44.078125 -91.53125 C -39.453125 -91.882812 -33.289062 -92.359375 -25.59375 -92.953125 C -17.894531 -93.546875 -9.363281 -94.140625 0 -94.734375 C 1.0625 -94.847656 1.921875 -95.378906 2.578125 -96.328125 C 3.234375 -97.273438 3.675781 -98.398438 3.90625 -99.703125 C 4.976562 -106.703125 6.375 -113.84375 8.09375 -121.125 C 9.8125 -128.414062 11.796875 -135.195312 14.046875 -141.46875 C 16.296875 -147.75 18.84375 -152.929688 21.6875 -157.015625 C 24.53125 -161.109375 27.550781 -163.515625 30.75 -164.234375 C 32.050781 -164.460938 33.796875 -164.25 35.984375 -163.59375 C 38.179688 -162.945312 40.171875 -160.789062 41.953125 -157.125 C 43.253906 -154.632812 43.546875 -150.457031 42.828125 -144.59375 C 42.117188 -138.726562 40.695312 -131.941406 38.5625 -124.234375 C 36.4375 -116.535156 33.953125 -108.597656 31.109375 -100.421875 C 30.515625 -98.878906 30.484375 -97.898438 31.015625 -97.484375 C 31.546875 -97.066406 31.988281 -96.859375 32.34375 -96.859375 C 43.84375 -97.578125 54.773438 -98.171875 65.140625 -98.640625 C 75.503906 -99.117188 84.125 -99.359375 91 -99.359375 C 92.300781 -99.359375 93.394531 -98.882812 94.28125 -97.9375 C 95.175781 -96.988281 95.625 -95.921875 95.625 -94.734375 C 95.625 -93.429688 95.175781 -92.304688 94.28125 -91.359375 C 93.394531 -90.410156 92.300781 -89.9375 91 -89.9375 C 83.894531 -89.9375 74.800781 -89.726562 63.71875 -89.3125 C 52.632812 -88.894531 41.113281 -88.210938 29.15625 -87.265625 C 28.082031 -87.265625 27.335938 -87.144531 26.921875 -86.90625 C 26.515625 -86.675781 26.128906 -86.144531 25.765625 -85.3125 C 23.285156 -77.96875 20.828125 -71.179688 18.390625 -64.953125 C 15.960938 -58.734375 13.976562 -53.726562 12.4375 -49.9375 C 13.15625 -44.375 14.367188 -39.015625 16.078125 -33.859375 C 17.796875 -28.703125 20.164062 -24.140625 23.1875 -20.171875 C 26.21875 -16.203125 30.101562 -13.328125 34.84375 -11.546875 C 40.164062 -9.535156 45.847656 -9.003906 51.890625 -9.953125 C 57.941406 -10.898438 63.957031 -12.765625 69.9375 -15.546875 C 75.925781 -18.335938 81.613281 -21.539062 87 -25.15625 C 92.394531 -28.769531 97.222656 -32.351562 101.484375 -35.90625 C 105.753906 -39.457031 109.128906 -42.390625 111.609375 -44.703125 C 114.097656 -47.015625 115.40625 -48.226562 115.53125 -48.34375 C 116.351562 -49.289062 117.414062 -49.765625 118.71875 -49.765625 C 120.03125 -49.765625 121.160156 -49.289062 122.109375 -48.34375 Z M 13.328125 -99.890625 C 13.210938 -99.179688 13.15625 -98.320312 13.15625 -97.3125 C 13.15625 -96.300781 13.628906 -95.796875 14.578125 -95.796875 C 15.523438 -95.796875 16.472656 -95.859375 17.421875 -95.984375 C 19.191406 -96.097656 20.257812 -97.101562 20.625 -99 C 23.695312 -107.882812 26.328125 -116.144531 28.515625 -123.78125 C 30.710938 -131.425781 32.285156 -137.796875 33.234375 -142.890625 C 34.179688 -147.992188 34.300781 -151.316406 33.59375 -152.859375 C 33.351562 -153.566406 32.878906 -154.039062 32.171875 -154.28125 C 31.460938 -154.394531 30.867188 -154.210938 30.390625 -153.734375 C 28.734375 -151.960938 26.835938 -148.53125 24.703125 -143.4375 C 22.566406 -138.34375 20.460938 -132.0625 18.390625 -124.59375 C 16.316406 -117.125 14.628906 -108.890625 13.328125 -99.890625 Z M 11.015625 -72.15625 C 11.492188 -72.15625 12.117188 -72.804688 12.890625 -74.109375 C 13.660156 -75.421875 14.367188 -76.960938 15.015625 -78.734375 C 15.671875 -80.515625 16.144531 -82.175781 16.4375 -83.71875 C 16.738281 -85.257812 16.710938 -86.207031 16.359375 -86.5625 C 14.691406 -87.382812 13.148438 -87.265625 11.734375 -86.203125 C 11.253906 -85.722656 10.894531 -84.742188 10.65625 -83.265625 C 10.425781 -81.785156 10.25 -80.1875 10.125 -78.46875 C 10.007812 -76.75 10.039062 -75.265625 10.21875 -74.015625 C 10.394531 -72.773438 10.660156 -72.15625 11.015625 -72.15625 Z M 11.015625 -72.15625 "/></g></g><g style="fill:#000000;fill-opacity:1;"><g transform="translate(167.802725, 255.640992)"><path style="stroke:none" d="M 158.171875 -70.484375 C 159.160156 -69.691406 159.765625 -68.679688 159.984375 -67.453125 C 160.210938 -66.234375 159.945312 -65.078125 159.1875 -63.984375 C 153.550781 -55.953125 147.035156 -48.785156 139.640625 -42.484375 C 132.242188 -36.191406 124.628906 -30.9375 116.796875 -26.71875 C 108.960938 -22.507812 101.398438 -19.398438 94.109375 -17.390625 C 86.828125 -15.390625 80.476562 -14.734375 75.0625 -15.421875 C 68.34375 -16.492188 62.25 -18.960938 56.78125 -22.828125 C 51.320312 -26.703125 47.019531 -31.597656 43.875 -37.515625 C 43.332031 -38.515625 42.472656 -38.96875 41.296875 -38.875 C 40.210938 -38.78125 39.460938 -38.21875 39.046875 -37.1875 C 28.710938 -14.800781 18.945312 -2.757812 9.75 -1.0625 C 9.164062 -0.957031 8.570312 -0.914062 7.96875 -0.9375 C 5.101562 -0.757812 2.4375 -1.316406 -0.03125 -2.609375 C -2.5 -3.910156 -4.441406 -5.816406 -5.859375 -8.328125 C -7.929688 -11.671875 -9.117188 -15.660156 -9.421875 -20.296875 C -9.734375 -24.941406 -9.476562 -29.453125 -8.65625 -33.828125 C -7.832031 -38.203125 -6.695312 -41.664062 -5.25 -44.21875 C -1.195312 -51.101562 2.820312 -55.457031 6.8125 -57.28125 C 10.8125 -59.101562 14.289062 -59.859375 17.25 -59.546875 C 24.269531 -58.671875 29.332031 -55.03125 32.4375 -48.625 C 32.769531 -47.476562 32.648438 -46.304688 32.078125 -45.109375 C 31.515625 -43.921875 30.601562 -43.15625 29.34375 -42.8125 C 28.226562 -42.351562 27.101562 -42.410156 25.96875 -42.984375 C 24.832031 -43.566406 24.046875 -44.421875 23.609375 -45.546875 C 21.765625 -48.335938 19.128906 -49.898438 15.703125 -50.234375 C 13.035156 -50.347656 10.59375 -49.207031 8.375 -46.8125 C 6.15625 -44.414062 4.3125 -41.992188 2.84375 -39.546875 C -0.96875 -30.785156 -1.210938 -21.945312 2.109375 -13.03125 C 3.242188 -10.84375 5.046875 -9.910156 7.515625 -10.234375 C 9.796875 -10.285156 13.128906 -12.941406 17.515625 -18.203125 C 21.910156 -23.472656 26.90625 -32.53125 32.5 -45.375 C 33.351562 -47.332031 34.1875 -49.347656 35 -51.421875 C 35.894531 -53.765625 36 -56.140625 35.3125 -58.546875 C 33.457031 -66.023438 32.179688 -73.617188 31.484375 -81.328125 C 30.640625 -90.453125 30.550781 -99.742188 31.21875 -109.203125 C 31.894531 -118.671875 33.3125 -127.519531 35.46875 -135.75 C 37.632812 -143.976562 40.460938 -150.878906 43.953125 -156.453125 C 47.441406 -162.023438 51.570312 -165.617188 56.34375 -167.234375 C 59.738281 -168.453125 62.644531 -167.722656 65.0625 -165.046875 C 67.132812 -162.890625 68.335938 -159.101562 68.671875 -153.6875 C 69.003906 -148.269531 68.65625 -141.816406 67.625 -134.328125 C 66.601562 -126.847656 65.101562 -118.800781 63.125 -110.1875 C 61.15625 -101.570312 58.835938 -92.863281 56.171875 -84.0625 C 53.515625 -75.257812 50.75 -66.921875 47.875 -59.046875 C 46.820312 -56.203125 46.859375 -53.378906 47.984375 -50.578125 C 50.484375 -44.160156 54 -38.476562 58.53125 -33.53125 C 63.0625 -28.582031 68.96875 -25.632812 76.25 -24.6875 C 80.414062 -24.25 85.660156 -24.847656 91.984375 -26.484375 C 98.316406 -28.128906 105.039062 -30.875 112.15625 -34.71875 C 119.28125 -38.5625 126.285156 -43.375 133.171875 -49.15625 C 140.066406 -54.9375 146.234375 -61.707031 151.671875 -69.46875 C 152.335938 -70.425781 153.3125 -71.023438 154.59375 -71.265625 C 155.875 -71.492188 157.066406 -71.234375 158.171875 -70.484375 Z M 40.734375 -82.125 C 40.816406 -81.0625 40.976562 -80.035156 41.21875 -79.046875 C 41.457031 -78.066406 41.796875 -77.523438 42.234375 -77.421875 C 42.679688 -77.328125 43.164062 -78.113281 43.6875 -79.78125 C 49.550781 -97 53.800781 -111.875 56.4375 -124.40625 C 59.082031 -136.945312 60.140625 -146.601562 59.609375 -153.375 C 59.503906 -154.675781 58.863281 -155.523438 57.6875 -155.921875 C 56.539062 -156.296875 55.566406 -156.050781 54.765625 -155.1875 C 51.640625 -151.851562 48.820312 -146.519531 46.3125 -139.1875 C 43.800781 -131.851562 41.984375 -123.226562 40.859375 -113.3125 C 39.734375 -103.40625 39.691406 -93.007812 40.734375 -82.125 Z M 40.734375 -82.125 "/></g></g><g clip-rule="nonzero" clip-path="url(#7751983f2a)"><path style=" stroke:none;fill-rule:nonzero;fill:#ffd51e;fill-opacity:1;" d="M 104.230469 199.726562 C 102.585938 198.769531 100.632812 198.832031 99.136719 199.890625 L 58.707031 228.84375 C 57.277344 229.894531 56.683594 231.683594 57.195312 233.402344 C 57.730469 235.191406 59.339844 236.457031 61.183594 236.554688 L 82.203125 237.828125 C 84.269531 240.886719 90.359375 250.023438 93.839844 255.324219 C 94.695312 256.648438 96.140625 257.417969 97.632812 257.417969 C 97.96875 257.417969 98.304688 257.378906 98.640625 257.300781 C 100.371094 256.886719 101.613281 255.46875 101.800781 253.675781 C 102.875 243.042969 105.53125 215.539062 106.59375 204.210938 C 106.773438 202.429688 105.84375 200.667969 104.230469 199.726562 Z M 82.285156 237.835938 C 82.285156 237.832031 82.28125 237.832031 82.28125 237.832031 L 82.285156 237.832031 Z M 82.285156 237.835938 "/></g></g></svg>